<svg width="35" height="20" viewBox="0 0 35 20" fill="none" xmlns="http://www.w3.org/2000/svg">
<path d="M0.527046 0.145818C0.394295 0.220473 0.202544 0.48923 0.0992936 0.743056C-0.136708 1.31043 0.0992936 1.96739 0.630297 2.22122C1.14655 2.46011 33.8622 2.46011 34.3785 2.22122C34.9095 1.96739 35.1455 1.31043 34.9095 0.743056C34.8062 0.48923 34.5997 0.220473 34.4522 0.145818C34.0982 -0.0482843 0.851548 -0.0482843 0.527046 0.145818Z" fill="white"/>
<path d="M0.582173 8.98476C0.405172 9.07435 0.183921 9.32817 0.0806706 9.56707C-0.140581 10.1195 0.110171 10.7914 0.626424 11.0303C1.14268 11.2692 33.8584 11.2692 34.3746 11.0303C35.1859 10.6421 35.1859 9.35804 34.3746 8.96983C33.8731 8.74587 1.05418 8.74587 0.582173 8.98476Z" fill="white"/>
<path d="M0.580531 17.794C0.0937783 18.0328 -0.127473 18.7047 0.0937783 19.2572C0.197029 19.511 0.40353 19.7798 0.551031 19.8544C0.905033 20.0485 34.0927 20.0485 34.4467 19.8544C34.5942 19.7798 34.8007 19.511 34.904 19.2572C35.14 18.6898 34.904 18.0328 34.373 17.779C33.8715 17.5551 1.05253 17.5551 0.580531 17.794Z" fill="white"/>
</svg>
